<svg xmlns="http://www.w3.org/2000/svg" xmlns:xlink="http://www.w3.org/1999/xlink" fill-opacity="1" color-interpolation="auto" stroke="black" stroke-linecap="square" width="119" stroke-miterlimit="10" stroke-opacity="1" fill="black" stroke-dasharray="none" stroke-width="1" height="107" stroke-linejoin="miter" stroke-dashoffset="0" xmlns:v="https://vecta.io/nano"><style><![CDATA[.B{stroke:none}.C{stroke-linecap:butt}.D{stroke-width:.6}.E{stroke-miterlimit:5}.F{image-rendering:optimizeQuality}.G{color-rendering:optimizeQuality}.H{color-interpolation:linearRGB}]]></style><g fill="#fff" text-rendering="geometricPrecision" stroke="#fff" class="F G H"><path d="M89.223 54.82v-5.047h-1.891v-.687h4.547v.688h-1.906v5.047h-.75zm3.074-2.078q0-1.156.641-1.703.531-.469 1.313-.469.844 0 1.391.563.547.563.547 1.547 0 .813-.25 1.266-.234.453-.703.719-.453.25-.984.25-.875 0-1.422-.562-.531-.562-.531-1.609zm.719 0q0 .797.344 1.203.359.391.891.391.516 0 .859-.391.359-.406.359-1.219 0-.781-.359-1.172-.344-.391-.859-.391-.531 0-.891.391-.344.391-.344 1.188zm5.527 1.453l.109.609q-.297.078-.531.078-.391 0-.609-.125-.203-.125-.297-.312-.078-.203-.078-.844V51.21h-.516v-.547h.516v-1.016l.703-.422v1.438h.703v.547h-.703v2.438q0 .297.031.391.047.078.125.125.078.047.234.047.125 0 .313-.016zm3.394.109q-.391.328-.75.469-.359.141-.781.141-.672 0-1.047-.328-.359-.344-.359-.859 0-.312.125-.562.141-.25.359-.391.234-.156.516-.234.203-.062.625-.109.859-.109 1.25-.25.016-.141.016-.172 0-.437-.203-.609-.266-.234-.797-.234-.5 0-.734.172-.234.172-.359.609l-.687-.094q.094-.437.313-.703.219-.281.625-.422.406-.156.938-.156.531 0 .859.125.344.125.5.328.156.188.219.469.031.188.031.656v.938q0 .969.047 1.234.047.266.172.5h-.734q-.109-.219-.141-.516zm-.062-1.562q-.375.156-1.141.266-.437.063-.625.141-.172.078-.266.234-.094.141-.094.328 0 .281.203.469.219.188.625.188.406 0 .719-.172.328-.187.469-.5.109-.234.109-.703v-.25zm1.793 2.078v-5.734h.703v5.734h-.703zm3.281-4.984v-.672h3.719v.547q-.547.578-1.094 1.547-.531.969-.828 1.984-.203.719-.266 1.578h-.719q0-.672.25-1.625.266-.969.734-1.859.484-.891 1.016-1.5h-2.812zM89.207 61.867v-5.734h.75v5.063h2.828v.672h-3.578zm4.449 0v-5.734h.75v5.063h2.828v.672h-3.578zm4.215-1.844l.719-.062q.047.438.234.719.188.266.578.438.391.172.875.172.438 0 .766-.125.328-.141.484-.359.172-.234.172-.5 0-.266-.156-.469-.156-.203-.516-.328-.234-.094-1.031-.281-.781-.187-1.094-.359-.406-.219-.609-.531-.203-.328-.203-.719 0-.437.25-.812.25-.375.719-.562.469-.203 1.047-.203.641 0 1.125.203.484.203.75.609.266.391.281.906l-.734.047q-.047-.547-.391-.812-.344-.281-1-.281-.687 0-1 .25-.312.25-.312.609 0 .313.219.5.219.203 1.141.422.922.203 1.266.359.5.234.734.594.25.344.25.797 0 .469-.266.875-.266.391-.75.625-.484.219-1.109.219-.766 0-1.297-.219-.531-.234-.828-.687-.297-.453-.312-1.031zm10.828-2.484l-.703.063q-.094-.422-.266-.609-.281-.297-.703-.297-.328 0-.594.188-.328.234-.516.703-.187.469-.203 1.328.25-.391.609-.578.375-.187.781-.187.703 0 1.188.516.5.516.5 1.344 0 .531-.234 1-.219.469-.625.719-.406.234-.922.234-.891 0-1.453-.641-.547-.656-.547-2.141 0-1.656.625-2.406.531-.656 1.438-.656.672 0 1.094.375.438.375.531 1.047zm-2.875 2.469q0 .359.156.703.156.328.422.5.281.172.594.172.438 0 .75-.359.328-.359.328-.969 0-.594-.312-.937-.312-.344-.797-.344-.469 0-.812.344-.328.344-.328.891zm-25.537 7.578l.672-.062q.094.484.328.703.25.203.625.203.328 0 .563-.141.25-.156.406-.406.156-.25.266-.672.109-.422.109-.859 0-.047-.016-.141-.203.344-.578.563-.359.203-.781.203-.719 0-1.219-.516-.484-.516-.484-1.359 0-.875.516-1.406.516-.531 1.297-.531.547 0 1.016.297.469.297.703.859.234.563.234 1.609 0 1.094-.234 1.75-.234.656-.703 1-.469.328-1.109.328-.672 0-1.094-.375-.422-.375-.516-1.047zm2.875-2.531q0-.594-.328-.953-.312-.359-.766-.359-.469 0-.812.391-.344.375-.344.984 0 .547.328.891.328.344.813.344.484 0 .797-.344.313-.344.313-.953zm1.605-.5q0-.609.297-1.031.313-.437.906-.437.531 0 .891.391.359.375.359 1.125 0 .734-.359 1.125-.359.391-.891.391-.516 0-.859-.391-.344-.391-.344-1.172zm1.219-.984q-.266 0-.437.234-.172.219-.172.828 0 .547.172.781.188.219.438.219.266 0 .438-.219.172-.234.172-.844 0-.547-.172-.766-.172-.234-.437-.234zm0 5.563l3.141-6.047h.563l-3.109 6.047h-.594zm2.484-1.562q0-.625.297-1.047.313-.422.906-.422.547 0 .891.391.359.375.359 1.125 0 .719-.359 1.125-.359.391-.891.391-.516 0-.859-.391-.344-.391-.344-1.172zm1.219-.984q-.266 0-.437.234-.172.219-.172.813 0 .547.172.781.188.219.438.219.266 0 .438-.219.188-.234.188-.828 0-.562-.187-.781-.172-.219-.437-.219zm3.813.248q0-1.156.641-1.703.531-.469 1.313-.469.844 0 1.391.563.547.563.547 1.547 0 .813-.25 1.266-.234.453-.703.719-.453.25-.984.25-.875 0-1.422-.562-.531-.562-.531-1.609zm.719 0q0 .797.344 1.203.359.391.891.391.516 0 .859-.391.359-.406.359-1.219 0-.781-.359-1.172-.344-.391-.859-.391-.531 0-.891.391-.344.391-.344 1.188zm5.152 2.078l-1.578-4.156h.734l.891 2.484q.141.406.266.844.094-.328.266-.797l.922-2.531h.719l-1.562 4.156h-.656zm5.688-1.344l.719.094q-.172.641-.641 1-.453.344-1.187.344-.906 0-1.437-.562-.531-.562-.531-1.578 0-1.047.531-1.625.547-.578 1.406-.578.828 0 1.359.578.531.563.531 1.594 0 .063-.016.188h-3.094q.047.672.391 1.047.344.359.875.359.375 0 .641-.203.281-.203.453-.656zm-2.312-1.125h2.313q-.047-.531-.266-.797-.328-.406-.875-.406-.484 0-.812.328-.328.328-.359.875zm3.902 2.469v-4.156h.641v.641q.234-.453.438-.594.219-.141.453-.141.359 0 .734.234l-.25.656q-.25-.156-.516-.156-.234 0-.422.141-.172.141-.25.375-.125.375-.125.828v2.172h-.703zm5.383-.516q-.391.328-.75.469-.359.141-.781.141-.672 0-1.047-.328-.359-.344-.359-.859 0-.312.125-.562.141-.25.359-.391.234-.156.516-.234.203-.062.625-.109.859-.109 1.25-.25.016-.141.016-.172 0-.437-.203-.609-.266-.234-.797-.234-.5 0-.734.172-.234.172-.359.609l-.687-.094q.094-.437.313-.703.219-.281.625-.422.406-.156.938-.156.531 0 .859.125.344.125.5.328.156.188.219.469.031.188.031.656v.938q0 .969.047 1.234.047.266.172.5h-.734q-.109-.219-.141-.516zm-.062-1.562q-.375.156-1.141.266-.437.063-.625.141-.172.078-.266.234-.094.141-.094.328 0 .281.203.469.219.188.625.188.406 0 .719-.172.328-.187.469-.5.109-.234.109-.703v-.25zm1.793 2.078V63.18h.703v5.734h-.703zm1.777 0V63.18h.703v5.734h-.703zM7.411 103.438h-.75q-.594-.906-.906-1.875-.312-.984-.312-1.891 0-1.125.391-2.141.328-.875.844-1.609h.75q-.531 1.188-.734 2.016-.203.828-.203 1.766 0 .641.109 1.313.125.672.344 1.281.125.391.469 1.141zm2.102-2.516v-1.484h-1.5v-1.031h1.5v-1.484h1v1.484h1.516v1.031h-1.516v1.484h-1zm3.109 2.516q.328-.703.453-1.078.141-.359.25-.844.125-.484.172-.922.063-.438.063-.891 0-.937-.203-1.766-.203-.828-.734-2.016h.75q.578.844.906 1.781.328.938.328 1.906 0 .828-.25 1.75-.297 1.063-.969 2.078h-.766zm2.852-3.219v-1.094h2.156v1.094h-2.156zm6.461-.578l1.125.359q-.266.938-.875 1.391-.594.453-1.516.453-1.141 0-1.875-.781-.734-.781-.734-2.125 0-1.437.734-2.219.75-.797 1.953-.797 1.047 0 1.703.625.391.359.594 1.047l-1.156.281q-.094-.453-.422-.703-.312-.266-.781-.266-.641 0-1.031.469-.391.453-.391 1.469 0 1.094.391 1.562.391.453 1.016.453.453 0 .781-.297.344-.297.484-.922zm1.856-.031q0-.547.266-1.047.266-.516.75-.781.5-.281 1.109-.281.953 0 1.547.625.609.609.609 1.531 0 .953-.609 1.578-.609.609-1.531.609-.578 0-1.094-.25-.516-.266-.781-.766-.266-.5-.266-1.219zm1.125.063q0 .625.281.953.297.328.734.328.422 0 .703-.328.297-.328.297-.953 0-.609-.297-.937-.281-.328-.703-.328-.437 0-.734.328-.281.328-.281.938zm7.777 2.078h-1.094v-2.125q0-.672-.078-.859-.062-.203-.219-.312-.156-.109-.375-.109-.297 0-.531.156-.219.156-.297.422-.078.25-.078.953v1.875h-1.109v-4.156h1.031v.609q.531-.703 1.359-.703.359 0 .656.141.313.125.469.328.156.203.203.469.063.25.063.734v2.578zm.871-2.141q0-.547.266-1.047.266-.516.75-.781.5-.281 1.109-.281.953 0 1.547.625.609.609.609 1.531 0 .953-.609 1.578-.609.609-1.531.609-.578 0-1.094-.25-.516-.266-.781-.766-.266-.5-.266-1.219zm1.125.063q0 .625.281.953.297.328.734.328.422 0 .703-.328.297-.328.297-.953 0-.609-.297-.937-.281-.328-.703-.328-.437 0-.734.328-.281.328-.281.938zm7.621-.844l-1.078.188q-.047-.312-.25-.469-.187-.172-.5-.172-.406 0-.656.281-.234.281-.234.938 0 .75.234 1.062.25.297.672.297.313 0 .516-.172.203-.187.281-.625l1.078.188q-.172.734-.656 1.125-.469.375-1.266.375-.906 0-1.453-.578-.547-.578-.547-1.594 0-1.016.547-1.594.547-.578 1.469-.578.766 0 1.203.328.453.328.641 1zm3.246 1.594l1.094.188q-.219.609-.672.922-.453.313-1.141.313-1.078 0-1.594-.703-.422-.578-.422-1.437 0-1.031.531-1.609.547-.594 1.375-.594.922 0 1.453.625.547.609.516 1.859h-2.75q.016.5.266.766.266.266.641.266.25 0 .422-.141.188-.141.281-.453zm.063-1.109q-.016-.469-.25-.719-.234-.25-.578-.25-.359 0-.594.266-.234.266-.219.703h1.641zm5.746 2.438h-1.094v-2.125q0-.672-.078-.859-.062-.203-.219-.312-.156-.109-.375-.109-.297 0-.531.156-.219.156-.297.422-.078.25-.078.953v1.875h-1.109v-4.156h1.031v.609q.531-.703 1.359-.703.359 0 .656.141.313.125.469.328.156.203.203.469.063.25.063.734v2.578zm.871-2.141q0-.547.266-1.047.266-.516.75-.781.5-.281 1.109-.281.953 0 1.547.625.609.609.609 1.531 0 .953-.609 1.578-.609.609-1.531.609-.578 0-1.094-.25-.516-.266-.781-.766-.266-.5-.266-1.219zm1.125.063q0 .625.281.953.297.328.734.328.422 0 .703-.328.297-.328.297-.953 0-.609-.297-.937-.281-.328-.703-.328-.437 0-.734.328-.281.328-.281.938zm4.012 2.078v-5.734h1.094v5.734h-1.094zm2.223-4.719v-1.016h1.094v1.016h-1.094zm0 4.719v-4.156h1.094v4.156h-1.094zm6.019 0h-1.016v-.609q-.25.359-.594.531-.344.172-.703.172-.719 0-1.234-.578-.5-.578-.5-1.609 0-1.047.5-1.594.5-.562 1.25-.562.703 0 1.203.578v-2.062h1.094v5.734zm-2.922-2.172q0 .672.188.969.266.422.734.422.375 0 .641-.313.266-.328.266-.969 0-.719-.266-1.031-.25-.312-.641-.312-.391 0-.656.312-.266.313-.266.922zm6.418.844l1.094.188q-.219.609-.672.922-.453.313-1.141.313-1.078 0-1.594-.703-.422-.578-.422-1.437 0-1.031.531-1.609.547-.594 1.375-.594.922 0 1.453.625.547.609.516 1.859h-2.75q.016.5.266.766.266.266.641.266.25 0 .422-.141.188-.141.281-.453zm.063-1.109q-.016-.469-.25-.719-.234-.25-.578-.25-.359 0-.594.266-.234.266-.219.703h1.641zm3.907 2.435v-5.734h4.25v.969h-3.094v1.281h2.875v.953h-2.875v1.562h3.203v.969h-4.359zm9.156 1.688h-.75q-.594-.906-.906-1.875-.312-.984-.312-1.891 0-1.125.391-2.141.328-.875.844-1.609h.75q-.531 1.188-.734 2.016-.203.828-.203 1.766 0 .641.109 1.313.125.672.344 1.281.125.391.469 1.141zm4.32-2.703v1.016h-3.844q.063-.578.375-1.094.313-.516 1.234-1.375.734-.687.906-.937.234-.344.234-.672 0-.375-.203-.562-.203-.203-.547-.203-.344 0-.547.219-.203.203-.234.672l-1.094-.109q.094-.906.609-1.297.516-.391 1.297-.391.844 0 1.328.453.484.453.484 1.141 0 .391-.141.734-.141.344-.437.734-.203.25-.719.734-.516.469-.656.625-.141.156-.219.313h2.172zM89.163 96q.828 0 1.297.594.563.703.563 2.328 0 1.625-.562 2.344-.469.578-1.297.578-.844 0-1.359-.641-.5-.641-.5-2.297 0-1.609.563-2.328.453-.578 1.297-.578zm0 .906q-.203 0-.359.125-.156.125-.25.453-.109.438-.109 1.438 0 1.016.094 1.391.109.375.266.5.156.125.359.125.188 0 .344-.125.156-.125.25-.453.109-.422.109-1.437 0-1-.109-1.375-.094-.391-.25-.516-.156-.125-.344-.125zm6.293 3.828v1.016h-3.844q.063-.578.375-1.094.313-.516 1.234-1.375.734-.687.906-.937.234-.344.234-.672 0-.375-.203-.562-.203-.203-.547-.203-.344 0-.547.219-.203.203-.234.672l-1.094-.109q.094-.906.609-1.297.516-.391 1.297-.391.844 0 1.328.453.484.453.484 1.141 0 .391-.141.734-.141.344-.437.734-.203.25-.719.734-.516.469-.656.625-.141.156-.219.313h2.172zM98.061 96q.828 0 1.297.594.563.703.563 2.328 0 1.625-.562 2.344-.469.578-1.297.578-.844 0-1.359-.641-.5-.641-.5-2.297 0-1.609.563-2.328.453-.578 1.297-.578zm0 .906q-.203 0-.359.125-.156.125-.25.453-.109.438-.109 1.438 0 1.016.094 1.391.109.375.266.5.156.125.359.125.188 0 .344-.125.156-.125.25-.453.109-.422.109-1.437 0-1-.109-1.375-.094-.391-.25-.516-.156-.125-.344-.125zm2.512 6.531q.328-.703.453-1.078.141-.359.25-.844.125-.484.172-.922.063-.438.063-.891 0-.937-.203-1.766-.203-.828-.734-2.016h.75q.578.844.906 1.781.328.938.328 1.906 0 .828-.25 1.75-.297 1.063-.969 2.078h-.766z" class="B"/><g fill="none" class="C D"><path d="M42.592 39.685l13.654-4.575m0 0l-.132-14.399m0-.001l-8.808-2.773m-7.968 2.716l-5.316 7.461"/><path d="M34.022 28.113l8.571 11.572m13.653-4.575l13.735 4.324m0 0l8.357-11.727m0 0l-5.433-7.336m-8.003-2.606l-8.789 2.945m21.296 8.301l10.319-.095m-10.343-2.497l10.319-.095M42.592 39.685L38.268 53.42m6.347-11.529l-3.425 10.88m-2.922.65l-13.654 4.575m0 0l.132 14.399m.001 0l13.736 4.324m-.001 0l8.357-11.727m0 0L38.268 53.42"/></g><path d="M57.239 13.776l-2.378.022h0l.137.999h0l2.121-.019h0l.119-1.001zm-.417 3.504l-1.479.014h0l.138.999h0l1.222-.011h0l.119-1.001zm-1.179 20.128l-.132 1h1.47l-.132-1zm-.462 3.5l-.132 1h2.394l-.132-1zm-5.897 23.557l-.999.093h0l.008.842h0l1.001.074h0l-.009-1.008zm3.497-.324l-.999.093h0l.013 1.425h0l1.001.074h0l-.015-1.592zm3.497-.324l-.999.093h0l.018 2.008h0l1.001.074h0l-.02-2.175zm3.497-.324l-.999.093h0l.024 2.592h0l1.001.074h0l-.025-2.758z" class="B"/><path d="M61.238 64.86l7.314 12.404m-8.786-9.798l6.554 11.115m-41.573-6.186l-12.9 3m12.9-3L22.56 86.628" fill="none" class="C D"/><path d="M19.71 53.037l-1.384 1.942h0l.89.475h0l1.233-1.73h0l-.739-.686zm2.587 2.401l-.856 1.202h0l.89.475h0l.706-.99h0l-.739-.686z" class="B"/><path d="M42.442 40.162l.15-.477.474-.159m-4.648 13.418l-.15.477.298.402m-4.247-25.308l-.298-.402.29-.407m-9.222 30.131l-.474.159.005.5m21.929 6.903l.29-.407-.298-.402" fill="none" class="C D E"/><use xlink:href="#B" class="B"/><path fill="none" d="M69.505 39.284l.477.15.29-.407" class="C D E"/><g class="B"><path d="M53.434 52.963v-7.156h.953v2.938h3.719v-2.937h.953v7.156h-.953v-3.375h-3.719v3.375h-.953z"/><use xlink:href="#B" x="-29.49" y="33.252"/><path d="M2.841 53.155v-7.156h.953v2.938h3.719v-2.937h.953v7.156h-.953V49.78H3.794v3.375h-.953z"/></g><path d="M38.772 76.312l-.29.407-.477-.15m40.036-49.264l.298.402-.29.407" fill="none" class="C D E"/><g class="B"><path d="M53.169 9.764V2.608h.953v2.938h3.719V2.608h.953v7.156h-.953V6.389h-3.719v3.375h-.953z"/><use xlink:href="#B" x="27.39" y="-0.252"/><use xlink:href="#B" x="50.36" y="11.188"/></g></g><defs ><path id="B" d="M38.956 16.418q0-1.781.953-2.781.953-1.016 2.469-1.016 1 0 1.797.469.797.469 1.203 1.328.422.844.422 1.922 0 1.078-.437 1.938-.437.859-1.25 1.313-.797.438-1.734.438-1.016 0-1.812-.484-.797-.5-1.203-1.344-.406-.844-.406-1.781zm.969.016q0 1.297.703 2.047.703.734 1.75.734 1.063 0 1.75-.75.703-.75.703-2.141 0-.875-.297-1.516-.297-.656-.875-1.016-.562-.359-1.266-.359-1.016 0-1.75.688-.719.688-.719 2.313z"/></defs></svg>