<svg xmlns="http://www.w3.org/2000/svg" viewBox="0 0 337.12 123.96" xmlns:v="https://vecta.io/nano"><path d="M235.08 61.98c0 34.22-26.74 62-61 62a62 62 0 1 1 0-123.95c34.26-.03 61 27.72 61 61.95zm-126.07 61.5h-95A14 14 0 0 1 1.5 103.19l47.49-95a14 14 0 0 1 25.07 0l47.49 95a14 14 0 0 1-12.54 20.29z" fill="#0052d0"/><path d="M208.11 61.98c0 19.32-14.67 35-34 35s-35-15.67-35-35 15.67-35 35-35 34 15.67 34 35z" fill="#fff"/><path d="M299.22 61.98l31 53.67c-22.572 13.074-50.912 10.622-70.903-6.134s-27.356-44.233-18.426-68.741S273.136-.032 299.22 0z" fill="#0052d0"/><circle cx="298.25" cy="61.98" r="35" fill="#fff"/><g fill="#0052d0"><circle cx="299.21" cy="13.5" r="13.5"/><circle cx="323.37" cy="103.81" r="13.75"/></g><path d="M80.83 96.98H42.22a5.71 5.71 0 0 1-5.1-8.25l19.31-38.61a5.7 5.7 0 0 1 10.19 0l19.27 38.61a5.7 5.7 0 0 1-5.06 8.25z" fill="#fff"/></svg>